<?xml version="1.0" encoding="UTF-8" standalone="no"?>
<svg
   viewBox="0 0 302.36209 302.36073"
   width="302.36209"
   height="302.36072"
   version="1.1"
   id="svg89"
   xmlns="http://www.w3.org/2000/svg"
   xmlns:svg="http://www.w3.org/2000/svg">
  <style>
    @media (prefers-color-scheme: dark) {
      #p, #y, #bar { fill: #d8dee9 }
    }
  </style>
  <desc
     id="desc1">pybar_logo.dxf - scale = 1.000000, origin = (0.000000, 0.000000), method = manual</desc>
  <defs
     id="defs4" />
  <path
     id="bar"
     style="fill:#d8dee9;fill-opacity:1;stroke:none;stroke-width:5;stroke-linecap:butt;stroke-linejoin:round;stroke-dasharray:none;stroke-opacity:1;paint-order:normal"
     d="m 0,245.66932 c -7.9999433e-5,-10.4369 8.46069,-18.8977 18.89782,-18.8978 h 264.56646 c 10.43713,1e-4 18.8979,8.4609 18.89782,18.8978 v 37.7927 c 3e-5,10.4395 -8.46073,18.9002 -18.89782,18.8987 H 18.89782 C 8.46073,302.36072 -2.9999433e-5,293.90152 0,283.46202 Z" />
  <path
     id="y"
     style="fill:#d8dee9;fill-opacity:1;stroke:none;stroke-width:5;stroke-dasharray:none;stroke-opacity:1"
     d="m 245.66924,188.97392 c 31.31066,0 56.69296,-25.3798 56.69286,-56.6915 V 18.89753 C 302.36215,8.46076 293.90139,0 283.46451,0 273.02764,0 264.56688,8.46077 264.56696,18.89753 v 37.79469 c -10e-5,10.4376 -8.46086,18.8983 -18.89771,18.8988 h -18.89762 c -10.43689,-5e-4 -18.89765,-8.4612 -18.89767,-18.8989 V 18.89753 C 207.87396,8.46076 199.4132,0 188.97633,0 178.53945,0 170.07869,8.46076 170.07867,18.89753 v 37.79389 c 3e-5,31.3106 25.38231,56.6929 56.69296,56.6915 l 18.89762,7e-4 c 10.43685,0 18.89761,8.4629 18.89763,18.8998 -7.9e-4,10.4363 -8.46132,18.8962 -18.89763,18.8971 l -151.181106,8e-4 c -10.436869,-2e-4 -18.897624,8.4605 -18.897645,18.8974 -3.4e-5,10.4369 8.460737,18.8977 18.897645,18.8952 z" />
  <path
     id="p"
     style="fill:#d8dee9;fill-opacity:1;stroke:none;stroke-width:5;stroke-dasharray:none;stroke-opacity:1"
     d="M 0,170.08012 V 56.69212 C -4.9999433e-5,25.38229 25.38223,0 56.692856,2.1e-4 H 75.590475 C 106.90113,0 132.28342,25.38229 132.28341,56.69292 c 0,31.3106 -25.38228,56.6929 -56.692935,56.6907 H 56.692856 c -10.436856,0 -18.897616,8.4629 -18.897716,18.8988 v 37.7977 c 1.1e-4,10.4355 -8.46065,18.8963 -18.89755,18.8963 -10.4369,0 -18.897669999433,-8.4608 -18.89759,-18.8963 z m 75.590475,-94.4891 c 10.436886,-5e-4 18.897641,-8.4612 18.897662,-18.8981 -2.1e-5,-10.4369 -8.460776,-18.8976 -18.897662,-18.8995 h -18.89762 c -10.436855,0 -18.897615,8.4626 -18.897635,18.8995 2e-5,10.4369 8.46078,18.8976 18.897635,18.8981 z" />
</svg>
