<?xml version="1.0" encoding="UTF-8" standalone="no"?>
<svg
   viewBox="0 0 302.36209 302.36073"
   width="302.36209"
   height="302.36072"
   version="1.1"
   id="svg89"
   sodipodi:docname="pybar-icon.svg"
   inkscape:version="1.4.3 (0d15f75042, 2025-12-25)"
   xmlns:inkscape="http://www.inkscape.org/namespaces/inkscape"
   xmlns:sodipodi="http://sodipodi.sourceforge.net/DTD/sodipodi-0.dtd"
   xmlns="http://www.w3.org/2000/svg"
   xmlns:svg="http://www.w3.org/2000/svg">
  <sodipodi:namedview
     id="namedview89"
     pagecolor="#ffffff"
     bordercolor="#000000"
     borderopacity="0.25"
     inkscape:showpageshadow="false"
     inkscape:pageopacity="0.0"
     inkscape:pagecheckerboard="true"
     inkscape:deskcolor="#d1d1d1"
     inkscape:zoom="1.3064711"
     inkscape:cx="224.26826"
     inkscape:cy="167.24442"
     inkscape:window-width="2560"
     inkscape:window-height="1440"
     inkscape:window-x="0"
     inkscape:window-y="0"
     inkscape:window-maximized="1"
     inkscape:current-layer="svg89"
     showborder="false"
     borderlayer="true" />
  <desc
     id="desc1">pybar_logo.dxf - scale = 1.000000, origin = (0.000000, 0.000000), method = manual</desc>
  <defs
     id="defs4">
    <rect
       x="453.84177"
       y="65.776863"
       width="921.51459"
       height="524.48126"
       id="rect118" />
    <linearGradient
       id="linearGradient112">
      <stop
         style="stop-color:#1c1f26;stop-opacity:1;"
         offset="0"
         id="stop115" />
      <stop
         style="stop-color:#ffffff;stop-opacity:0;"
         offset="1"
         id="stop116" />
    </linearGradient>
    <rect
       x="100.36088"
       y="273.26404"
       width="199.4469"
       height="83.675652"
       id="rect109" />
    <marker
       id="DistanceX"
       orient="auto"
       refX="0"
       refY="0"
       style="overflow:visible">
      <path
         d="M 3,-3 -3,3 M 0,-5 V 5"
         style="stroke:#000000;stroke-width:0.5"
         id="path1" />
    </marker>
    <pattern
       id="Hatch"
       patternUnits="userSpaceOnUse"
       width="8"
       height="8"
       x="0"
       y="0">
      <path
         d="M8 4 l-4,4"
         stroke="#000000"
         stroke-width="0.25"
         linecap="square"
         id="path2" />
      <path
         d="M6 2 l-4,4"
         stroke="#000000"
         stroke-width="0.25"
         linecap="square"
         id="path3" />
      <path
         d="M4 0 l-4,4"
         stroke="#000000"
         stroke-width="0.25"
         linecap="square"
         id="path4" />
    </pattern>
    <symbol
       id="*MODEL_SPACE" />
    <symbol
       id="*PAPER_SPACE" />
  </defs>
  <path
     id="path66"
     style="fill:#d8dee9;fill-opacity:1;stroke:none;stroke-width:5;stroke-dasharray:none;stroke-opacity:1"
     d="m -151.18105,1141.4187 v -113.388 c -5e-5,-31.30983 25.38223,-56.69212 56.692856,-56.69191 h 18.897619 c 31.310658,-2.1e-4 56.692941,25.38208 56.692937,56.69271 -7e-6,31.3106 -25.382287,56.6929 -56.692937,56.6907 h -18.897619 c -10.436856,0 -18.897616,8.4629 -18.897716,18.8988 v 37.7977 c 1.1e-4,10.4355 -8.46065,18.8963 -18.89755,18.8963 -10.4369,0 -18.89767,-8.4608 -18.89759,-18.8963 z m 75.590475,-94.4891 c 10.436886,-5e-4 18.897641,-8.4612 18.897662,-18.8981 -2.1e-5,-10.4369 -8.460776,-18.8976 -18.897662,-18.8995 h -18.89762 c -10.436855,0 -18.897615,8.4626 -18.897635,18.8995 2e-5,10.4369 8.46078,18.8976 18.897635,18.8981 z"
     inkscape:export-filename="pybar-dark.png"
     inkscape:export-xdpi="61.429718"
     inkscape:export-ydpi="61.429718"
     transform="translate(151.18105,-971.33858)" />
  <path
     id="path80"
     style="fill:#d8dee9;fill-opacity:1;stroke:none;stroke-width:5;stroke-dasharray:none;stroke-opacity:1"
     d="m 94.488194,1160.3125 c 31.310656,0 56.692956,-25.3798 56.692856,-56.6915 V 990.23611 c 5e-5,-10.43677 -8.46071,-18.89753 -18.89759,-18.89753 -10.43687,0 -18.89763,8.46077 -18.89755,18.89753 v 37.79469 c -10e-5,10.4376 -8.46086,18.8983 -18.897715,18.8988 h -18.89762 c -10.436886,-5e-4 -18.897641,-8.4612 -18.897669,-18.8989 v -37.79459 c 8e-6,-10.43677 -8.460752,-18.89753 -18.89763,-18.89753 -10.436878,0 -18.897639,8.46076 -18.897657,18.89753 V 1028.03 c 2.6e-5,31.3106 25.382306,56.6929 56.692956,56.6915 l 18.89762,7e-4 c 10.436855,0 18.897615,8.4629 18.897635,18.8998 -7.9e-4,10.4363 -8.46132,18.8962 -18.897635,18.8971 l -151.181101,8e-4 c -10.436869,-2e-4 -18.897624,8.4605 -18.897645,18.8974 -3.4e-5,10.4369 8.460737,18.8977 18.897645,18.8952 z"
     sodipodi:nodetypes="ccccccccccccccccccccc"
     transform="translate(151.18105,-971.33858)" />
  <path
     id="path81"
     style="fill:#d8dee9;fill-opacity:1;stroke:none;stroke-width:5;stroke-linecap:butt;stroke-linejoin:round;stroke-dasharray:none;stroke-opacity:1;paint-order:normal"
     d="m -151.18105,1217.0079 c -8e-5,-10.4369 8.46069,-18.8977 18.89782,-18.8978 h 264.56646 c 10.43713,10e-5 18.8979,8.4609 18.89782,18.8978 v 37.7927 c 3e-5,10.4395 -8.46073,18.9002 -18.89782,18.8987 h -264.56646 c -10.43709,0 -18.89785,-8.4592 -18.89782,-18.8987 z"
     sodipodi:nodetypes="ccccccccc"
     transform="translate(151.18105,-971.33858)" />
</svg>
