<?xml version="1.0" encoding="UTF-8" standalone="no"?>
<svg
   viewBox="-46.151 -30.079 188.70123 62.281222"
   version="1.1"
   id="svg9"
   sodipodi:docname="pybar-logo-new-dark.svg"
   inkscape:version="1.4.3 (0d15f75042, 2025-12-25)"
   xml:space="preserve"
   width="188.70123"
   height="62.281219"
   xmlns:inkscape="http://www.inkscape.org/namespaces/inkscape"
   xmlns:sodipodi="http://sodipodi.sourceforge.net/DTD/sodipodi-0.dtd"
   xmlns="http://www.w3.org/2000/svg"
   xmlns:svg="http://www.w3.org/2000/svg"><defs
     id="defs9"><rect
       x="453.84177"
       y="65.776863"
       width="921.51459"
       height="524.48126"
       id="rect118" /><linearGradient
       id="linearGradient112"><stop
         style="stop-color:#1c1f26;stop-opacity:1;"
         offset="0"
         id="stop115" /><stop
         style="stop-color:#ffffff;stop-opacity:0;"
         offset="1"
         id="stop116" /></linearGradient><rect
       x="100.36088"
       y="273.26404"
       width="199.4469"
       height="83.675652"
       id="rect109" /><marker
       id="DistanceX"
       orient="auto"
       refX="0"
       refY="0"
       style="overflow:visible"><path
         d="M 3,-3 -3,3 M 0,-5 V 5"
         style="stroke:#000000;stroke-width:0.5"
         id="path1-3" /></marker><pattern
       id="Hatch"
       patternUnits="userSpaceOnUse"
       width="8"
       height="8"
       x="0"
       y="0"><path
         d="M8 4 l-4,4"
         stroke="#000000"
         stroke-width="0.25"
         linecap="square"
         id="path2-6" /><path
         d="M6 2 l-4,4"
         stroke="#000000"
         stroke-width="0.25"
         linecap="square"
         id="path3-7" /><path
         d="M4 0 l-4,4"
         stroke="#000000"
         stroke-width="0.25"
         linecap="square"
         id="path4-5" /></pattern><symbol
       id="*MODEL_SPACE" /><symbol
       id="*PAPER_SPACE" /></defs><sodipodi:namedview
     id="namedview9"
     pagecolor="#ffffff"
     bordercolor="#000000"
     borderopacity="0.25"
     inkscape:showpageshadow="2"
     inkscape:pageopacity="0.0"
     inkscape:pagecheckerboard="0"
     inkscape:deskcolor="#d1d1d1"
     inkscape:zoom="3.1809915"
     inkscape:cx="57.214866"
     inkscape:cy="64.288132"
     inkscape:window-width="2560"
     inkscape:window-height="1440"
     inkscape:window-x="0"
     inkscape:window-y="0"
     inkscape:window-maximized="1"
     inkscape:current-layer="svg9" /><rect
     style="display:none;fill:#ff0000;fill-opacity:1;stroke:none;stroke-width:4.02316;stroke-linecap:round;stroke-linejoin:round;stroke-opacity:1;paint-order:markers stroke fill"
     id="rect1"
     width="188.70125"
     height="62.281219"
     x="-46.151001"
     y="-30.078999"
     ry="0" /><g
     id="g2"
     style="fill:none;fill-opacity:1;stroke:#d8dee9;stroke-opacity:1"
     transform="translate(72.70124)"><path
       d="m -44.151,8.521 v -16"
       fill="none"
       stroke="#000000"
       stroke-width="0.1"
       id="path1"
       style="fill:none;fill-opacity:1;stroke:#d8dee9;stroke-width:4;stroke-linecap:round;stroke-dasharray:none;stroke-opacity:1" /><path
       style="fill:none;fill-opacity:1;stroke:#d8dee9;stroke-width:4;stroke-linecap:round;stroke-dasharray:none;stroke-opacity:1"
       d="m -44.151,-7.479 v -8 l 0.003,-0.207 0.008,-0.205 0.013,-0.204 0.017,-0.202 0.023,-0.201 0.028,-0.2 0.033,-0.198 0.038,-0.196 0.042,-0.194 0.047,-0.193 0.052,-0.19 0.056,-0.189 0.061,-0.187 0.065,-0.185 0.069,-0.183 0.074,-0.18 0.078,-0.179 0.082,-0.176 0.086,-0.173 0.091,-0.172 0.094,-0.168 0.098,-0.167 0.103,-0.163 0.105,-0.161 0.11,-0.158 0.114,-0.156 0.116,-0.152 0.121,-0.15 0.124,-0.147 0.127,-0.143 0.131,-0.141 0.134,-0.137 0.138,-0.134 0.14,-0.131 0.144,-0.128 0.146,-0.124 0.15,-0.12 0.153,-0.117 0.155,-0.113 0.158,-0.11 0.161,-0.106 0.164,-0.102 0.166,-0.098 0.169,-0.095 0.171,-0.09 0.174,-0.087 0.176,-0.082 0.178,-0.078 0.181,-0.073 0.183,-0.07 0.184,-0.065 0.187,-0.061 0.189,-0.056 0.191,-0.052 0.192,-0.047 0.195,-0.042 0.196,-0.037 0.198,-0.033 0.199,-0.028 0.201,-0.023 0.203,-0.018 0.204,-0.013 0.205,-0.008 0.206,-0.002 0.207,0.002 0.205,0.008 0.204,0.013 0.202,0.018 0.201,0.023 0.2,0.028 0.197,0.033 0.196,0.037 0.195,0.042 0.193,0.047 0.19,0.052 0.189,0.056 0.187,0.061 0.185,0.065 0.183,0.07 0.18,0.073 0.178,0.078 0.177,0.082 0.173,0.087 0.171,0.09 0.169,0.095 0.166,0.098 0.164,0.102 0.161,0.106 0.158,0.11 0.156,0.113 0.152,0.117 0.15,0.12 0.147,0.124 0.143,0.128 0.141,0.131 0.137,0.134 0.134,0.137 0.131,0.141 0.127,0.143 0.124,0.147 0.121,0.15 0.117,0.152 0.113,0.156 0.11,0.158 0.106,0.161 0.102,0.163 0.098,0.167 0.095,0.168 0.09,0.172 0.086,0.173 0.082,0.176 0.079,0.179 0.073,0.18 0.07,0.183 0.065,0.185 0.061,0.187 0.056,0.189 0.051,0.19 0.047,0.193 0.043,0.194 0.037,0.196 0.033,0.198 0.028,0.2 0.023,0.201 0.018,0.202 0.013,0.204 0.008,0.205 0.002,0.207 -0.002,0.206 -0.008,0.205 -0.013,0.204 -0.018,0.203 -0.023,0.201 -0.028,0.199 -0.033,0.198 -0.037,0.196 -0.043,0.194 -0.047,0.193 -0.051,0.191 -0.056,0.189 -0.061,0.186 -0.065,0.185 -0.07,0.183 -0.073,0.181 -0.079,0.178 -0.082,0.176 -0.086,0.174 -0.09,0.171 -0.095,0.169 -0.098,0.166 -0.102,0.164 -0.106,0.16 -0.11,0.159 -0.113,0.155 -0.117,0.153 -0.121,0.149 -0.124,0.147 -0.127,0.144 -0.131,0.14 -0.134,0.137 -0.137,0.135 -0.141,0.13 -0.143,0.128 -0.147,0.124 -0.15,0.12 -0.152,0.117 -0.156,0.114 -0.158,0.109 -0.161,0.106 -0.164,0.102 -0.166,0.099 -0.169,0.094 -0.171,0.09 -0.173,0.087 -0.177,0.082 -0.178,0.078 -0.18,0.074 -0.183,0.069 -0.185,0.065 -0.187,0.061 -0.189,0.056 -0.19,0.052 -0.193,0.047 -0.195,0.042 -0.196,0.038 -0.197,0.032 -0.2,0.028 -0.201,0.023 -0.202,0.018 -0.204,0.013 -0.205,0.008 -0.207,0.003 h -8"
       id="path2" /><path
       d="m -20.151,-7.479 v 8 l 0.003,0.206 0.008,0.205 0.013,0.204 0.017,0.203 0.023,0.201 0.028,0.199 0.033,0.198 0.038,0.196 0.042,0.194 0.047,0.193 0.052,0.191 0.056,0.189 0.061,0.186 0.065,0.185 0.069,0.183 0.074,0.181 0.078,0.178 0.082,0.176 0.086,0.174 0.091,0.171 0.094,0.169 0.098,0.166 0.103,0.164 0.105,0.16 0.11,0.159 0.114,0.155 0.116,0.153 0.121,0.149 0.124,0.147 0.127,0.144 0.131,0.14 0.134,0.137 0.138,0.135 0.14,0.13 0.144,0.128 0.146,0.124 0.15,0.12 0.153,0.117 0.155,0.114 0.158,0.109 0.161,0.106 0.164,0.102 0.166,0.099 0.169,0.094 0.171,0.09 0.174,0.087 0.176,0.082 0.178,0.078 0.181,0.074 0.183,0.069 0.184,0.065 0.187,0.061 0.189,0.056 0.191,0.052 0.192,0.047 0.195,0.042 0.196,0.038 0.198,0.032 0.199,0.028 0.201,0.023 0.203,0.018 0.204,0.013 0.205,0.008 0.206,0.003 h 8.978"
       fill="none"
       stroke="#000000"
       stroke-width="0.1"
       id="path3"
       style="fill:none;fill-opacity:1;stroke:#d8dee9;stroke-width:4;stroke-linecap:round;stroke-dasharray:none;stroke-opacity:1" /><path
       d="m -3.173,8.521 v 13.681 l -0.002,0.206 -0.008,0.205 -0.013,0.204 -0.018,0.203 -0.023,0.2 -0.028,0.2 -0.033,0.198 -0.037,0.196 -0.042,0.194 -0.048,0.193 -0.051,0.191 -0.056,0.189 -0.061,0.186 -0.065,0.185 -0.07,0.183 -0.073,0.181 -0.078,0.178 -0.083,0.176 -0.086,0.174 -0.09,0.171 -0.095,0.169 -0.098,0.166 -0.102,0.164 -0.106,0.16 -0.11,0.159 -0.113,0.155 -0.117,0.153 -0.12,0.149 -0.124,0.147 -0.128,0.144 -0.131,0.14 -0.134,0.137 -0.137,0.135 -0.141,0.13 -0.143,0.128 -0.147,0.124 -0.15,0.12 -0.152,0.117 -0.156,0.114 -0.158,0.109 -0.161,0.106 -0.163,0.102 -0.167,0.099 -0.168,0.094 -0.172,0.09 -0.173,0.087 -0.176,0.082 -0.179,0.078 -0.18,0.074 -0.183,0.069 -0.185,0.065 -0.187,0.061 -0.189,0.056 -0.19,0.052 -0.193,0.047 -0.194,0.042 -0.197,0.038 -0.197,0.032 -0.2,0.028 -0.201,0.023 -0.202,0.018 -0.204,0.013 -0.205,0.008 -0.207,0.003 -0.206,-0.003 -0.205,-0.008 -0.204,-0.013 -0.203,-0.018 -0.201,-0.023 -0.199,-0.028 -0.198,-0.032 -0.196,-0.038 -0.194,-0.042 -0.193,-0.047 -0.191,-0.052 -0.189,-0.056 -0.186,-0.061 -0.185,-0.065 -0.183,-0.069 -0.181,-0.074 -0.178,-0.078 -0.176,-0.082 -0.174,-0.087 -0.171,-0.09 -0.169,-0.094 -0.166,-0.099 -0.164,-0.102 -0.161,-0.106 -0.158,-0.109 -0.155,-0.114 -0.153,-0.117 -0.149,-0.12 -0.147,-0.124 -0.144,-0.128 -0.14,-0.13 -0.137,-0.135 -0.135,-0.137 -0.13,-0.14 -0.128,-0.144 -0.124,-0.147 -0.12,-0.149 -0.117,-0.153 -0.114,-0.155 -0.109,-0.159 -0.106,-0.16 -0.102,-0.164 -0.099,-0.166 -0.094,-0.169 -0.09,-0.171 -0.087,-0.174 -0.082,-0.176 -0.078,-0.178 -0.074,-0.181 -0.069,-0.183 -0.065,-0.185 -0.061,-0.186 -0.056,-0.189 -0.052,-0.191 -0.047,-0.193 -0.042,-0.194 -0.038,-0.196 -0.032,-0.198 -0.028,-0.2 -0.023,-0.2 -0.018,-0.203 -0.013,-0.204 -0.008,-0.205 -0.003,-0.206"
       fill="none"
       stroke="#000000"
       stroke-width="0.1"
       id="path4"
       style="fill:none;fill-opacity:1;stroke:#d8dee9;stroke-width:4;stroke-linecap:round;stroke-dasharray:none;stroke-opacity:1" /><path
       d="m -3.173,-7.479 v 16"
       fill="none"
       stroke="#000000"
       stroke-width="0.1"
       id="path5"
       style="fill:none;fill-opacity:1;stroke:#d8dee9;stroke-width:4;stroke-linecap:round;stroke-dasharray:none;stroke-opacity:1" /><path
       d="m 3.849,-7.479 v 8 L 3.852,0.727 3.86,0.932 3.873,1.136 3.89,1.339 3.913,1.54 3.941,1.739 3.974,1.937 4.012,2.133 4.054,2.327 4.101,2.52 4.153,2.711 4.209,2.9 4.27,3.086 4.335,3.271 4.404,3.454 4.478,3.635 4.556,3.813 4.638,3.989 4.724,4.163 4.815,4.334 4.909,4.503 5.007,4.669 5.11,4.833 5.215,4.993 5.325,5.152 5.439,5.307 5.555,5.46 5.676,5.609 5.8,5.756 5.927,5.9 6.058,6.04 6.192,6.177 6.33,6.312 6.47,6.442 6.614,6.57 6.76,6.694 6.91,6.814 7.063,6.931 7.218,7.045 7.376,7.154 7.537,7.26 7.701,7.362 7.867,7.461 8.036,7.555 8.207,7.645 8.381,7.732 8.557,7.814 8.735,7.892 8.916,7.966 9.099,8.035 9.283,8.1 9.47,8.161 9.659,8.217 9.85,8.269 l 0.192,0.047 0.195,0.042 0.196,0.038 0.198,0.032 0.199,0.028 0.201,0.023 0.203,0.018 0.204,0.013 0.205,0.008 0.206,0.003 0.207,-0.003 0.205,-0.008 0.204,-0.013 0.202,-0.018 0.201,-0.023 0.2,-0.028 0.197,-0.032 0.196,-0.038 0.195,-0.042 0.193,-0.047 0.19,-0.052 L 14.228,8.161 14.415,8.1 14.6,8.035 14.783,7.966 14.963,7.892 15.141,7.814 15.318,7.732 15.491,7.645 15.662,7.555 15.831,7.461 15.997,7.362 16.161,7.26 16.322,7.154 16.48,7.045 16.636,6.931 16.788,6.814 16.938,6.694 17.085,6.57 17.228,6.442 17.369,6.312 17.506,6.177 17.64,6.04 17.771,5.9 17.898,5.756 18.022,5.609 18.143,5.46 18.26,5.307 18.373,5.152 18.483,4.993 18.589,4.833 18.691,4.669 18.789,4.503 18.884,4.334 18.974,4.163 19.06,3.989 19.142,3.813 19.221,3.635 19.294,3.454 19.364,3.271 19.429,3.086 19.49,2.9 19.546,2.711 19.597,2.52 19.644,2.327 19.687,2.133 19.724,1.937 19.757,1.739 19.785,1.54 19.808,1.339 19.826,1.136 19.839,0.932 19.847,0.727 19.849,0.521 19.847,0.314 19.839,0.109 l -0.013,-0.204 -0.018,-0.202 -0.023,-0.201 -0.028,-0.2 -0.033,-0.198 -0.037,-0.196 -0.043,-0.194 -0.047,-0.193 -0.051,-0.19 -0.056,-0.189 -0.061,-0.187 -0.065,-0.185 -0.07,-0.183 -0.073,-0.18 -0.079,-0.179 -0.082,-0.176 -0.086,-0.173 -0.09,-0.172 -0.095,-0.168 -0.098,-0.167 -0.102,-0.163 -0.106,-0.161 -0.11,-0.158 -0.113,-0.156 -0.117,-0.152 -0.121,-0.15 -0.124,-0.147 -0.127,-0.143 -0.131,-0.141 -0.134,-0.137 -0.137,-0.134 -0.141,-0.131 -0.143,-0.128 -0.147,-0.124 -0.15,-0.12 -0.152,-0.117 -0.156,-0.113 -0.158,-0.11 -0.161,-0.106 -0.164,-0.102 -0.166,-0.098 -0.169,-0.095 -0.171,-0.09 -0.173,-0.087 -0.177,-0.082 -0.178,-0.078 -0.18,-0.073 -0.183,-0.07 -0.185,-0.065 -0.187,-0.061 -0.189,-0.056 -0.19,-0.052 -0.193,-0.047 -0.195,-0.042 -0.196,-0.037 -0.197,-0.033 -0.2,-0.028 -0.201,-0.023 -0.202,-0.018 -0.204,-0.013 -0.205,-0.008 -0.207,-0.002 h -8"
       fill="none"
       stroke="#000000"
       stroke-width="0.1"
       id="path6"
       style="fill:none;fill-opacity:1;stroke:#d8dee9;stroke-width:4;stroke-linecap:round;stroke-dasharray:none;stroke-opacity:1" /><path
       d="m 3.849,-28.079 v 20.6"
       fill="none"
       stroke="#000000"
       stroke-width="0.1"
       id="path7"
       style="fill:none;fill-opacity:1;stroke:#d8dee9;stroke-width:4;stroke-linecap:round;stroke-dasharray:none;stroke-opacity:1" /><path
       d="m 51.849,8.521 v -8 l 0.003,-0.207 0.008,-0.205 0.013,-0.204 0.017,-0.202 0.023,-0.201 0.028,-0.2 0.033,-0.198 0.038,-0.196 0.042,-0.194 0.047,-0.193 0.052,-0.19 0.056,-0.189 0.061,-0.187 0.065,-0.185 0.069,-0.183 0.074,-0.18 0.078,-0.179 0.082,-0.176 0.086,-0.173 0.091,-0.172 0.094,-0.168 0.098,-0.167 0.103,-0.163 0.105,-0.161 0.11,-0.158 0.114,-0.156 0.116,-0.152 0.121,-0.15 0.124,-0.147 0.127,-0.143 0.131,-0.141 0.134,-0.137 0.138,-0.134 0.14,-0.131 0.144,-0.128 0.146,-0.124 0.15,-0.12 0.153,-0.117 0.155,-0.113 0.158,-0.11 0.161,-0.106 0.164,-0.102 0.166,-0.098 0.169,-0.095 0.171,-0.09 0.174,-0.087 0.176,-0.082 0.178,-0.078 0.181,-0.073 0.183,-0.07 0.184,-0.065 0.187,-0.061 0.189,-0.056 0.191,-0.052 0.192,-0.047 0.195,-0.042 0.196,-0.037 0.198,-0.033 0.199,-0.028 0.201,-0.023 0.203,-0.018 0.204,-0.013 0.205,-0.008 0.206,-0.002 0.207,0.002 0.205,0.008 0.204,0.013 0.202,0.018 0.201,0.023 0.2,0.028 0.197,0.033 0.196,0.037 0.195,0.042 0.193,0.047 0.19,0.052 0.189,0.056 0.187,0.061 0.185,0.065 0.183,0.07 0.18,0.073 0.178,0.078 0.177,0.082 0.173,0.087 0.171,0.09 0.169,0.095 0.166,0.098 0.164,0.102 0.161,0.106 0.158,0.11 0.156,0.113 0.152,0.117 0.15,0.12 0.147,0.124 0.143,0.128 0.141,0.131 0.137,0.134 0.134,0.137 0.131,0.141 0.127,0.143 0.124,0.147 0.121,0.15 0.117,0.152 0.113,0.156 0.11,0.158 0.106,0.161 0.102,0.163 0.098,0.167 0.095,0.168 0.09,0.172 0.086,0.173 0.082,0.176 0.079,0.179 0.073,0.18 0.07,0.183 0.065,0.185 0.061,0.187 0.056,0.189 0.051,0.19 0.047,0.193 0.043,0.194 0.037,0.196 0.033,0.198 0.028,0.2 0.023,0.201 0.018,0.202 0.013,0.204 0.008,0.205 0.002,0.207"
       fill="none"
       stroke="#000000"
       stroke-width="0.1"
       id="path8"
       style="fill:none;fill-opacity:1;stroke:#d8dee9;stroke-width:4;stroke-linecap:round;stroke-dasharray:none;stroke-opacity:1" /><path
       d="M 35.849,8.521 35.643,8.518 35.438,8.51 35.234,8.497 35.031,8.479 34.83,8.456 34.631,8.428 34.433,8.396 34.237,8.358 34.042,8.316 33.85,8.269 33.659,8.217 33.47,8.161 33.283,8.1 33.099,8.035 32.916,7.966 32.735,7.892 32.557,7.814 32.381,7.732 32.207,7.645 32.036,7.555 31.867,7.461 31.701,7.362 31.537,7.26 31.376,7.154 31.218,7.045 31.063,6.931 30.91,6.814 30.76,6.694 30.614,6.57 30.47,6.442 30.33,6.312 30.192,6.177 30.058,6.04 29.927,5.9 29.8,5.756 29.676,5.609 29.555,5.46 29.439,5.307 29.325,5.152 29.215,4.993 29.11,4.833 29.007,4.669 28.909,4.503 28.815,4.334 28.724,4.163 28.638,3.989 28.556,3.813 28.478,3.635 28.404,3.454 28.335,3.271 28.27,3.086 28.209,2.9 28.153,2.711 28.101,2.52 28.054,2.327 28.012,2.133 27.974,1.937 27.941,1.739 27.913,1.54 27.89,1.339 27.873,1.136 27.86,0.932 27.852,0.727 27.849,0.521 27.852,0.314 27.86,0.109 l 0.013,-0.204 0.017,-0.202 0.023,-0.201 0.028,-0.2 0.033,-0.198 0.038,-0.196 0.042,-0.194 0.047,-0.193 0.052,-0.19 0.056,-0.189 0.061,-0.187 0.065,-0.185 0.069,-0.183 0.074,-0.18 0.078,-0.179 0.082,-0.176 0.086,-0.173 0.091,-0.172 0.094,-0.168 0.098,-0.167 0.103,-0.163 0.105,-0.161 0.11,-0.158 0.114,-0.156 0.116,-0.152 0.121,-0.15 0.124,-0.147 0.127,-0.143 0.131,-0.141 0.134,-0.137 0.138,-0.134 0.14,-0.131 0.144,-0.128 0.146,-0.124 0.15,-0.12 0.153,-0.117 0.155,-0.113 0.158,-0.11 0.161,-0.106 0.164,-0.102 0.166,-0.098 0.169,-0.095 0.171,-0.09 0.174,-0.087 0.176,-0.082 0.178,-0.078 0.181,-0.073 0.183,-0.07 0.184,-0.065 0.187,-0.061 0.189,-0.056 0.191,-0.052 0.192,-0.047 0.195,-0.042 0.196,-0.037 0.198,-0.033 0.199,-0.028 0.201,-0.023 0.203,-0.018 0.204,-0.013 0.205,-0.008 0.206,-0.002 0.207,0.002 0.205,0.008 0.204,0.013 0.202,0.018 0.201,0.023 0.2,0.028 0.197,0.033 0.196,0.037 0.195,0.042 0.193,0.047 0.19,0.052 0.189,0.056 0.187,0.061 0.185,0.065 0.183,0.07 0.18,0.073 0.178,0.078 0.177,0.082 0.173,0.087 0.171,0.09 0.169,0.095 0.166,0.098 0.164,0.102 0.161,0.106 0.158,0.11 0.156,0.113 0.152,0.117 0.15,0.12 0.147,0.124 0.143,0.128 0.141,0.131 0.137,0.134 0.134,0.137 0.131,0.141 0.127,0.143 0.124,0.147 0.121,0.15 0.117,0.152 0.113,0.156 0.11,0.158 0.106,0.161 0.102,0.163 0.098,0.167 0.095,0.168 0.09,0.172 0.086,0.173 0.082,0.176 0.079,0.179 0.073,0.18 0.07,0.183 0.065,0.185 0.061,0.187 0.056,0.189 0.051,0.19 0.047,0.193 0.043,0.194 0.037,0.196 0.033,0.198 0.028,0.2 0.023,0.201 0.018,0.202 0.013,0.204 0.008,0.205 0.002,0.207 v 8 h -8"
       fill="none"
       stroke="#000000"
       stroke-width="0.1"
       id="path9"
       style="fill:none;fill-opacity:1;stroke:#d8dee9;stroke-width:4;stroke-linecap:round;stroke-dasharray:none;stroke-opacity:1" /></g><g
     id="g1"
     transform="matrix(0.20598317,0,0,0.20598317,-46.151,-30.079)"><path
       id="path66"
       style="fill:#5e81ac;fill-opacity:1;stroke:none;stroke-width:5;stroke-dasharray:none;stroke-opacity:1"
       d="m -151.18105,1141.4187 v -113.388 c -5e-5,-31.30983 25.38223,-56.69212 56.692856,-56.69191 h 18.897619 c 31.310658,-2.1e-4 56.692941,25.38208 56.692937,56.69271 -7e-6,31.3106 -25.382287,56.6929 -56.692937,56.6907 h -18.897619 c -10.436856,0 -18.897616,8.4629 -18.897716,18.8988 v 37.7977 c 1.1e-4,10.4355 -8.46065,18.8963 -18.89755,18.8963 -10.4369,0 -18.89767,-8.4608 -18.89759,-18.8963 z m 75.590475,-94.4891 c 10.436886,-5e-4 18.897641,-8.4612 18.897662,-18.8981 -2.1e-5,-10.4369 -8.460776,-18.8976 -18.897662,-18.8995 h -18.89762 c -10.436855,0 -18.897615,8.4626 -18.897635,18.8995 2e-5,10.4369 8.46078,18.8976 18.897635,18.8981 z"
       inkscape:export-filename="pybar-dark.png"
       inkscape:export-xdpi="61.429718"
       inkscape:export-ydpi="61.429718"
       transform="translate(151.18105,-971.33858)" /><path
       id="path80"
       style="fill:#ebcb8b;fill-opacity:1;stroke:none;stroke-width:5;stroke-dasharray:none;stroke-opacity:1"
       d="m 94.488194,1160.3125 c 31.310656,0 56.692956,-25.3798 56.692856,-56.6915 V 990.23611 c 5e-5,-10.43677 -8.46071,-18.89753 -18.89759,-18.89753 -10.43687,0 -18.89763,8.46077 -18.89755,18.89753 v 37.79469 c -10e-5,10.4376 -8.46086,18.8983 -18.897715,18.8988 h -18.89762 c -10.436886,-5e-4 -18.897641,-8.4612 -18.897669,-18.8989 v -37.79459 c 8e-6,-10.43677 -8.460752,-18.89753 -18.89763,-18.89753 -10.436878,0 -18.897639,8.46076 -18.897657,18.89753 V 1028.03 c 2.6e-5,31.3106 25.382306,56.6929 56.692956,56.6915 l 18.89762,7e-4 c 10.436855,0 18.897615,8.4629 18.897635,18.8998 -7.9e-4,10.4363 -8.46132,18.8962 -18.897635,18.8971 l -151.181101,8e-4 c -10.436869,-2e-4 -18.897624,8.4605 -18.897645,18.8974 -3.4e-5,10.4369 8.460737,18.8977 18.897645,18.8952 z"
       sodipodi:nodetypes="ccccccccccccccccccccc"
       transform="translate(151.18105,-971.33858)" /><path
       id="path81"
       style="fill:#d8dee9;fill-opacity:1;stroke:none;stroke-width:5;stroke-linecap:butt;stroke-linejoin:round;stroke-dasharray:none;stroke-opacity:1;paint-order:normal"
       d="m -151.18105,1217.0079 c -8e-5,-10.4369 8.46069,-18.8977 18.89782,-18.8978 h 264.56646 c 10.43713,10e-5 18.8979,8.4609 18.89782,18.8978 v 37.7927 c 3e-5,10.4395 -8.46073,18.9002 -18.89782,18.8987 h -264.56646 c -10.43709,0 -18.89785,-8.4592 -18.89782,-18.8987 z"
       sodipodi:nodetypes="ccccccccc"
       transform="translate(151.18105,-971.33858)" /></g></svg>
